<?xml version="1.0" encoding="utf-8"?>
<!-- Generator: Adobe Illustrator 26.0.1, SVG Export Plug-In . SVG Version: 6.00 Build 0)  -->
<svg version="1.1" id="Layer_1" xmlns="http://www.w3.org/2000/svg" xmlns:xlink="http://www.w3.org/1999/xlink" x="0px" y="0px"
	 viewBox="0 0 89 30" style="enable-background:new 0 0 89 30;" xml:space="preserve">
<style type="text/css">
	.st0{fill:#DA3600;}
	.st1{fill:#FFFFFF;}
</style>
<g>
	<path class="st0" d="M2.1,25.9l1.2-0.5L1.6,11.1l-1.3-0.2v-0.3L5.6,10c2.5-0.3,4.5,0.2,6,1.4s2.4,3.1,2.7,5.5
		c0.3,2.5-0.1,4.5-1.3,6s-3,2.4-5.5,2.7l-5.3,0.6L2.1,25.9z M7.4,25c1.3-0.2,2.2-0.8,2.8-2c0.6-1.2,0.7-3.1,0.4-5.7
		s-0.9-4.4-1.7-5.5c-0.8-1-1.9-1.5-3.2-1.3l-0.6,0.1l1.7,14.5L7.4,25z"/>
	<path class="st0" d="M18.2,25.5c-1.6-0.6-3-1.6-4.1-3.1s-1.9-3.4-2.3-5.7c-0.4-2.3-0.4-4.4,0.1-6.1c0.5-1.8,1.4-3.2,2.7-4.3
		c1.4-1.2,3-2,5-2.3c2-0.4,3.7-0.2,5.4,0.3c1.6,0.6,3,1.6,4.1,3.1s1.9,3.4,2.3,5.7s0.4,4.4-0.1,6.1c-0.5,1.8-1.4,3.2-2.7,4.3
		s-2.9,1.8-4.9,2.2C21.6,26.2,19.8,26.1,18.2,25.5z"/>
	<g>
		<path class="st1" d="M33.2,25.2l1.3-0.3V11.4l-1.3-0.3v-0.3h6v0.3l-1.3,0.3V18l5.2-6.3l-1.6-0.6v-0.3h4v0.3l-1.7,0.6l-3.7,4.5
			l5.7,8.6l1.1,0.3v0.3H44c-0.6,0-1.2-0.2-1.6-0.5c-0.4-0.3-0.9-0.8-1.2-1.3L38,18.8v6l1.3,0.3v0.3h-6L33.2,25.2L33.2,25.2z"/>
		<path class="st1" d="M47.7,25.5v-0.3l1.3-0.3V11.4l-1.3-0.3v-0.3h6v0.3l-1.3,0.3V18h4.5v-6.5l-1.3-0.3v-0.3h6v0.3l-1.3,0.3V25
			l1.3,0.3v0.3h-6v-0.3l1.3-0.3v-6.4h-4.5V25l1.3,0.3v0.3L47.7,25.5L47.7,25.5z"/>
		<path class="st1" d="M61.7,25.2l1.7-0.6l5.8-14h0.6l6,14.3l1.1,0.3v0.3h-2.5c-0.7,0-1.3-0.2-1.8-0.5s-0.8-0.8-1-1.3l-1.1-2.5h-5
			L64,24.6l1.6,0.6v0.3h-3.9C61.7,25.5,61.7,25.2,61.7,25.2z M65.6,20.7h4.6l-2.3-5.5L65.6,20.7z"/>
		<path class="st1" d="M77.5,25.2l1.3-0.3V11.4l-1.3-0.3v-0.3h6v0.3l-1.3,0.3V25h4.5c0-0.9,0.2-1.7,0.7-2.5c0.2-0.3,0.4-0.6,0.7-0.8
			h0.6v3.8H77.5V25.2z"/>
	</g>
</g>
</svg>
